<svg width="19" height="17" viewBox="0 0 19 17" fill="none" xmlns="http://www.w3.org/2000/svg">
<path d="M6.66655 11.3333C5.49988 10.9446 4.15197 10.0112 3.55155 9.07291C3.47201 8.94266 3.43624 8.79037 3.44947 8.63833L3.55155 7.07583C3.57363 6.73833 3.97238 6.55916 4.2478 6.75499C5.13738 7.38708 6.76155 8.41666 7.91655 8.41666C10.8332 8.41666 13.3332 7.37499 14.5832 5.08333" stroke="#70F98E" stroke-width="1.66667" stroke-linecap="round" stroke-linejoin="round"/>
<path d="M10.8331 15.9167C14.9998 15.0833 18.8506 10.7146 17.8611 6.30875L17.4994 4.66666V1.33333L14.9994 0.916664C14.9994 6.30875 13.7494 10.5 8.33272 11.3333C5.84272 11.7167 3.45564 11.1725 1.6123 10.1158L2.08314 13C2.91647 15.0833 6.66647 16.75 10.8331 15.9167Z" stroke="#70F98E" stroke-width="1.66667" stroke-linecap="round" stroke-linejoin="round"/>
</svg>
