<?xml version="1.0" encoding="UTF-8"?><svg id="Layer_1" xmlns="http://www.w3.org/2000/svg" viewBox="0 0 864 265"><defs><style>.cls-1{fill:#1f1d1d;}</style></defs><rect class="cls-1" width="46" height="265"/><rect class="cls-1" x="103" width="46" height="265"/><rect class="cls-1" x="257" width="46" height="265"/><rect class="cls-1" x="755" width="46" height="265"/><rect class="cls-1" x="702" width="46" height="265"/><rect class="cls-1" x="450" width="46" height="265"/><rect class="cls-1" x="678" width="16" height="265"/><rect class="cls-1" x="550" width="16" height="265"/><rect class="cls-1" x="521" width="16" height="265"/><rect class="cls-1" x="56" width="16" height="265"/><rect class="cls-1" x="180" width="16" height="265"/><rect class="cls-1" x="848" width="16" height="265"/><rect class="cls-1" x="834" width="8" height="265"/><rect class="cls-1" x="820" width="8" height="265"/><rect class="cls-1" x="598" width="8" height="265"/><rect class="cls-1" x="584" width="8" height="265"/><rect class="cls-1" x="622.90909" width="5.09091" height="265"/><rect class="cls-1" x="381.90909" width="5.09091" height="265"/><rect class="cls-1" x="369" width="5.09091" height="265"/><rect class="cls-1" x="159" width="5.09091" height="265"/><rect class="cls-1" x="652.81818" width="14.18182" height="265"/><rect class="cls-1" x="635" width="14.18182" height="265"/><rect class="cls-1" x="231" width="8" height="265"/><rect class="cls-1" x="203" width="8" height="265"/><rect class="cls-1" x="320" width="46" height="265"/><rect class="cls-1" x="427" width="5.09091" height="265"/><rect class="cls-1" x="503" width="5.09091" height="265"/><rect class="cls-1" x="396" width="23" height="265"/></svg>