<?xml version="1.0" encoding="utf-8"?>
<!-- Generator: Adobe Illustrator 27.0.1, SVG Export Plug-In . SVG Version: 6.00 Build 0)  -->
<svg version="1.1" id="Layer_1" xmlns="http://www.w3.org/2000/svg" xmlns:xlink="http://www.w3.org/1999/xlink" x="0px" y="0px"
	 viewBox="0 0 27 27" style="enable-background:new 0 0 27 27;" xml:space="preserve">
<style type="text/css">
	.st0{fill:#70F98E;}
	.st1{fill:none;}
</style>
<g>
	<g>
		<path class="st0" d="M27,5.6c0-0.7-0.2-1.4-0.7-2c-0.8-1.1-2-1.7-3.3-1.6c-1.7,0.1-3.9,0.8-6,1.5l-1,0.3c-0.9,0.3-1.7,0.3-2.7,0.4
			c-1.4,0.1-3,0.2-5.4,0.8c-3.6,1-6.1,2.8-7.2,5.2C0.2,11.2,0,12.1,0,13.1c0,0,0,0,0,0V16c0,1.1,0.2,2.1,0.7,3.2
			c1.3,2.8,4.9,4.9,8.4,4.9c2.5,0,4.8-1,6.7-2.8c1.6-1.6,2.2-2.7,2.9-3.8c0.4-0.8,0.9-1.6,1.8-2.6c0.7-0.9,1.7-1.4,2.7-1.8
			c1.4-0.7,2.9-1.4,3.7-3.4C26.9,9.3,27,8.9,27,8.5L27,5.6C27,5.7,27,5.7,27,5.6z M1.9,10.9c0.9-2,3.1-3.5,6.2-4.4
			c2.2-0.6,3.7-0.7,5.1-0.8c1.1-0.1,2.1-0.1,3.1-0.5l1.1-0.4c2-0.7,4.1-1.4,5.6-1.5l0.2,0c0.8,0,1.5,0.4,1.9,1
			c0.4,0.6,0.5,1.3,0.3,1.8c-0.5,1.4-1.6,1.9-2.9,2.5c-1.1,0.5-2.3,1.1-3.2,2.2c-1,1.2-1.4,2-1.9,2.8c-0.6,1.1-1.1,2-2.6,3.5
			c-1.6,1.6-3.6,2.4-5.6,2.4c-3.3,0-6.2-2.1-7.1-4.1C1.5,14.5,1.1,12.8,1.9,10.9z"/>
		<path class="st0" d="M9.1,18.3c1.7,0,3.3-0.7,4.6-2c1.4-1.3,1.8-2.1,2.4-3.1c0.5-0.8,1-1.8,2-3c1.2-1.4,2.6-2.1,3.7-2.6
			c1.4-0.6,1.9-0.9,2.1-1.7c0-0.1,0-0.3-0.2-0.5c-0.1-0.1-0.3-0.4-0.7-0.4c-1.4,0.1-3.4,0.8-5.3,1.4l-1.1,0.4
			c-1.2,0.4-2.3,0.5-3.5,0.5c-1.3,0.1-2.7,0.1-4.8,0.7C5.8,8.7,4,10,3.3,11.5c-0.6,1.4-0.3,2.7,0.1,3.6C4,16.6,6.5,18.3,9.1,18.3z
			 M9,10.2c1.9,0,3.4,1.1,3.4,2.4C12.5,14,10.9,15,9,15c-1.9,0-3.4-1.1-3.4-2.4C5.6,11.3,7.1,10.2,9,10.2z"/>
	</g>
</g>
<rect y="0.2" class="st1" width="27" height="21.5"/>
</svg>
