<svg width="27" height="27" viewBox="0 0 27 27" fill="none" xmlns="http://www.w3.org/2000/svg">
<path d="M2.78989 20.9606L2.79374 20.9577C-0.999457 16.9305 -0.929999 10.5715 3.00212 6.63971C4.73858 4.90384 7.04421 3.83339 9.4849 3.61158C10.7156 3.504 11.8695 2.96819 12.7456 2.09752L12.9192 1.92393C15.4178 -0.573791 19.4522 -0.639368 22.0318 1.72624L22.0366 1.72141L22.2392 1.92393L25.0754 4.75918C27.6415 7.32441 27.6415 11.5098 25.0754 14.075L24.9018 14.2486C24.0335 15.1262 23.4933 16.2834 23.3872 17.5082C23.175 19.9577 22.1041 22.2625 20.3677 23.9984C16.3545 28.0005 9.83316 28.0005 5.82966 23.9984L2.79085 20.9606H2.78989ZM2.81883 9.2628C0.752438 12.5754 1.10552 16.9681 3.87807 19.9104C4.90558 21.0031 6.19642 21.8139 7.62706 22.2653C9.0577 22.7166 10.5803 22.7934 12.0491 22.4882C13.081 22.2734 14.0655 21.8735 14.9548 21.3078C15.4275 21.0088 15.6107 20.4013 15.3696 19.8902L12.6202 14.1232C12.0768 12.998 11.1644 12.0927 10.0348 11.558L4.23694 8.83847C3.72564 8.60703 3.11788 8.78061 2.81883 9.2628ZM15.7747 18.4436C15.8536 18.6109 15.973 18.7558 16.1223 18.865C16.2715 18.9743 16.4457 19.0445 16.629 19.0691C16.8124 19.0937 16.9989 19.0721 17.1717 19.0061C17.3445 18.9402 17.4981 18.832 17.6183 18.6915C18.4331 17.4503 18.927 16.0265 19.0557 14.5476C19.1908 12.966 19.8853 11.4809 21.0044 10.3525L21.178 10.179C21.6656 9.69257 22.0491 9.11204 22.305 8.47273C22.5609 7.83342 22.6839 7.14871 22.6666 6.46033C22.6501 5.76496 22.4905 5.08044 22.1977 4.44945C21.9049 3.81846 21.4852 3.25453 20.9648 2.79283C18.9505 1.00392 15.851 1.13411 13.9322 3.05225L13.8164 3.16797C12.6889 4.28844 11.2038 4.97784 9.61996 5.116C8.17291 5.24137 6.78374 5.71391 5.56822 6.48541C4.83505 6.95795 4.90258 8.05733 5.69363 8.42379L10.44 10.6708C10.4457 10.6708 10.4496 10.6737 10.4554 10.6756C10.4602 10.6775 10.465 10.6804 10.4689 10.6804C11.4047 11.1144 12.5044 10.9504 13.2376 10.2175L13.9515 9.50389C14.4049 9.05064 14.5785 8.38522 14.3952 7.77767C14.2377 7.25491 14.2244 6.6993 14.3569 6.16964C14.4893 5.63997 14.7626 5.15596 15.1477 4.76883C15.4383 4.4769 15.7859 4.24791 16.1689 4.09613C16.5519 3.94435 16.9621 3.87302 17.3739 3.88659C17.7856 3.90016 18.1902 3.99834 18.5624 4.17501C18.9345 4.35168 19.2663 4.60305 19.5371 4.91348C20.5307 6.03215 20.5307 7.74873 19.5371 8.87705C18.7171 9.80285 17.4823 10.1018 16.4018 9.77392C16.1003 9.68074 15.7791 9.67193 15.4729 9.74844C15.1668 9.82494 14.8875 9.98385 14.6653 10.2079L13.9611 10.9119C13.2279 11.6448 13.0639 12.7538 13.5077 13.6893C13.5077 13.6941 13.5106 13.697 13.5135 13.6989C13.5154 13.7018 13.5183 13.7037 13.5183 13.7086L15.7757 18.4436H15.7747ZM16.0738 5.67534C15.4275 6.32147 15.4275 7.36299 16.0738 8.00912C16.7202 8.65524 17.7717 8.65524 18.418 8.01876C19.0644 7.37263 19.0644 6.32147 18.418 5.67534C18.1069 5.36499 17.6854 5.19069 17.2459 5.19069C16.8064 5.19069 16.3849 5.36499 16.0738 5.67534Z" fill="#70F98E"/>
</svg>
