<?xml version="1.0" encoding="utf-8"?>
<!-- Generator: Adobe Illustrator 27.0.1, SVG Export Plug-In . SVG Version: 6.00 Build 0)  -->
<svg version="1.1" id="Layer_1" xmlns="http://www.w3.org/2000/svg" xmlns:xlink="http://www.w3.org/1999/xlink" x="0px" y="0px"
	 viewBox="0 0 27 27" style="enable-background:new 0 0 27 27;" xml:space="preserve">
<style type="text/css">
	.st0{fill:none;}
	.st1{fill:#70F98E;}
</style>
<rect y="2.8" class="st0" width="27" height="21.5"/>
<g>
	<path class="st1" d="M26.4,9.5h-2c-0.2,0-0.3,0.1-0.4,0.2l-0.4,0.4c-0.7-1.6-1.7-3.3-3.1-5c-0.7-0.9-1.9-1.4-3-1.4H9.5
		c-1.2,0-2.3,0.5-3,1.4c-1.4,1.7-2.4,3.3-3.1,5L3,9.7C2.9,9.6,2.7,9.5,2.6,9.5h-2C0.3,9.5,0,9.8,0,10.1v1.4C0,11.7,0.2,12,0.5,12
		l2,0.1C2.3,13,2,14.4,2,16.3c0,1.6,0.3,2.7,0.9,3.4v3.2c0,0.3,0.2,0.5,0.5,0.5h2.3c0.3,0,0.5-0.2,0.5-0.5v-2h14.7v2
		c0,0.3,0.2,0.5,0.5,0.5h2.3c0.3,0,0.5-0.2,0.5-0.5v-3.2c0.6-0.7,0.9-1.8,0.9-3.4c0-1.9-0.2-3.2-0.5-4.1l2-0.1
		c0.3,0,0.5-0.3,0.5-0.6v-1.4C27,9.8,26.7,9.5,26.4,9.5z M8.2,6.5C8.5,6.1,9,5.8,9.5,5.8h7.9c0.5,0,1,0.2,1.4,0.6
		c1,1.2,1.7,2.3,2.3,3.4l-15.3,0C6.4,8.8,7.2,7.7,8.2,6.5z M6.5,18.5c-1.1,0-2-0.4-2-1.3c0-0.9,0.3-1.6,1.5-1.6s2.6,0.7,2.6,1.6
		C8.5,18.1,7.6,18.5,6.5,18.5z M15.6,18.3h-4.3c-0.6,0-1.2-0.5-1.2-1.2c0-0.2,0.1-0.3,0.3-0.3h5.9c0.2,0,0.3,0.1,0.3,0.3
		C16.8,17.8,16.3,18.3,15.6,18.3z M20.5,18.5c-1.1,0-2-0.4-2-1.3c0-0.9,1.5-1.6,2.6-1.6c1.1,0,1.5,0.7,1.5,1.6
		C22.5,18.1,21.6,18.5,20.5,18.5z"/>
</g>
</svg>
