<svg width="37" height="20" viewBox="0 0 37 20" fill="none" xmlns="http://www.w3.org/2000/svg">
<path d="M25.2273 0H8.40909L0 10V15H3.36364C3.36364 16.3261 3.89521 17.5979 4.84142 18.5355C5.78762 19.4732 7.07095 20 8.40909 20C9.74723 20 11.0306 19.4732 11.9768 18.5355C12.923 17.5979 13.4545 16.3261 13.4545 15H23.5455C23.5455 16.3261 24.077 17.5979 25.0232 18.5355C25.9694 19.4732 27.2528 20 28.5909 20C29.929 20 31.2124 19.4732 32.1586 18.5355C33.1048 17.5979 33.6364 16.3261 33.6364 15H37V10C37 8.15 35.5032 6.66667 33.6364 6.66667H30.2727L25.2273 0ZM9.25 2.5H15.9773V6.66667H5.88636L9.25 2.5ZM18.5 2.5H24.3864L27.6827 6.66667H18.5V2.5ZM8.40909 12.5C9.07816 12.5 9.71983 12.7634 10.1929 13.2322C10.666 13.7011 10.9318 14.337 10.9318 15C10.9318 15.663 10.666 16.2989 10.1929 16.7678C9.71983 17.2366 9.07816 17.5 8.40909 17.5C7.74002 17.5 7.09836 17.2366 6.62525 16.7678C6.15215 16.2989 5.88636 15.663 5.88636 15C5.88636 14.337 6.15215 13.7011 6.62525 13.2322C7.09836 12.7634 7.74002 12.5 8.40909 12.5ZM28.5909 12.5C29.26 12.5 29.9016 12.7634 30.3747 13.2322C30.8478 13.7011 31.1136 14.337 31.1136 15C31.1136 15.663 30.8478 16.2989 30.3747 16.7678C29.9016 17.2366 29.26 17.5 28.5909 17.5C27.9218 17.5 27.2802 17.2366 26.8071 16.7678C26.334 16.2989 26.0682 15.663 26.0682 15C26.0682 14.337 26.334 13.7011 26.8071 13.2322C27.2802 12.7634 27.9218 12.5 28.5909 12.5Z" fill="#70F98E"/>
</svg>
