<svg width="48" height="48" viewBox="0 0 48 48" fill="none" xmlns="http://www.w3.org/2000/svg">
<path d="M3.60003 8.25C3.99377 7.5642 4.56197 6.9948 5.24694 6.59963C5.93191 6.20446 6.70925 5.99757 7.50003 6L40.5 6C41.2908 5.99704 42.0683 6.2034 42.7536 6.59813C43.4388 6.99285 44.0074 7.56189 44.4016 8.24744C44.7958 8.933 45.0016 9.71066 44.998 10.5015C44.9944 11.2923 44.7817 12.068 44.3813 12.75L27.9 41.25C27.5055 41.9354 26.9372 42.5048 26.2525 42.9007C25.5679 43.2966 24.7909 43.505 24 43.505C23.2091 43.505 22.4322 43.2966 21.7475 42.9007C21.0628 42.5048 20.4946 41.9354 20.1 41.25L3.61878 12.75C3.21539 12.0695 3.00097 11.2936 2.99768 10.5025C2.99438 9.71146 3.20232 8.93384 3.60003 8.25Z" fill="#70F98E"/>
</svg>
