<?xml version="1.0" encoding="utf-8"?>
<!-- Generator: Adobe Illustrator 27.0.1, SVG Export Plug-In . SVG Version: 6.00 Build 0)  -->
<svg version="1.1" id="Arrow_1_" xmlns="http://www.w3.org/2000/svg" xmlns:xlink="http://www.w3.org/1999/xlink" x="0px" y="0px"
	 viewBox="0 0 2499 2500" style="enable-background:new 0 0 2499 2500;" xml:space="preserve">
<style type="text/css">
	.st0{fill:#E13138;}
	.st1{fill:#FFFFFF;}
</style>
<ellipse id="Shape_1_copy_3_25_" class="st0" cx="1249.5" cy="1250" rx="1249.5" ry="1250"/>
<path id="Pinterest_Icon" class="st1" d="M1319.3,287.9c-589.5,0-887.2,416.6-887.2,764c0,210.8,81,397.2,253.8,467.2
	c28.7,11.8,54,0.8,62.4-30.4c5.9-21.1,32-75.9,37.9-97.8c8.4-30.4,5.1-41.3-17.7-68.3c-49.8-58.2-81-118.9-81-225.2
	c0-354.2,220.9-606.3,597.1-606.3c333.1,0,516.1,206.6,516.1,474.8c0,352.5-158.5,639.2-393.8,639.2
	c-129.9,0-226.9-94.5-195.6-224.3c37.1-155.2,109.6-322.1,109.6-434.3c0-100.4-54-172-167-172c-132.4,0-239.5,124-239.5,305.3
	c0,115.5,37.9,172.9,37.9,172.9S818.3,1840.5,793.9,1940c-47.2,198.2-6.7,440.2-3.4,464.7c1.7,14.3,21.1,17.7,29.5,6.7
	c11.8-15.2,170.4-208.3,224.3-400.6c15.2-54,87.7-335.6,87.7-335.6c43,81,169.5,133.2,302.8,133.2c398.9,0,669.6-339.9,669.6-818.9
	C2105.2,626.1,1793.2,287.9,1319.3,287.9L1319.3,287.9z"/>
</svg>
