<?xml version="1.0" encoding="utf-8"?>
<!-- Generator: Adobe Illustrator 27.0.1, SVG Export Plug-In . SVG Version: 6.00 Build 0)  -->
<svg version="1.1" id="Layer_1" xmlns="http://www.w3.org/2000/svg" xmlns:xlink="http://www.w3.org/1999/xlink" x="0px" y="0px"
	 viewBox="0 0 40 40" style="enable-background:new 0 0 40 40;" xml:space="preserve">
<style type="text/css">
	.st0{fill-rule:evenodd;clip-rule:evenodd;fill:#1A121F;}
	.st1{fill-rule:evenodd;clip-rule:evenodd;fill:#26F4EE;}
	.st2{fill-rule:evenodd;clip-rule:evenodd;fill:#FB2C53;}
	.st3{fill-rule:evenodd;clip-rule:evenodd;fill:#FEFEFE;}
</style>
<g>
	<path class="st0" d="M20,0c11,0,20,9,20,20s-9,20-20,20S0,31,0,20S9,0,20,0z M24,8.5c0,0.3,0.1,0.7,0.2,1l0.8,0
		c0.1,1.2,0.5,2.3,1,3.2c0.9,0.8,2,1.3,3.4,1.4v1.1c0.3,0.1,0.5,0.1,0.8,0.1v3.6c-1.8,0.2-3.3-0.4-5.2-1.5l0.3,6.1c0,2,0,2.9-1,4.7
		c-2.5,4.2-7,4.4-9.9,2.2c-1.5-0.5-2.8-1.5-3.6-2.8c-2.4-3.9-0.2-10.3,6.7-10.9l0,0.9v0.2c0.4-0.1,0.8-0.1,1.2-0.2v3.8
		c-1.5,0.2-2.4,0.7-2.9,1.6c-0.9,1.7-0.5,3.2,0.4,4.1c2,0.3,4.1-1,3.8-5.2V8.5L24,8.5L24,8.5z"/>
	<path class="st1" d="M24,8.5c0.4,3.2,2.3,5.4,5.3,5.6v3l0,0v-2.6c-3.1-0.2-4.8-2.1-5.2-5.3l-3.3,0v13.3c0.5,6-4.2,6.2-6,3.9
		c2.1,1.3,5.5,0.5,5.1-4.7V8.5L24,8.5L24,8.5z M15.3,30.6c-1.8-0.4-3.5-1.5-4.5-3.1c-2.4-3.9-0.2-10.3,6.7-10.9l0,0.9
		c-6.4,1-7.1,7.9-5.3,10.8C12.9,29.4,14,30.2,15.3,30.6z"/>
	<path class="st2" d="M24.9,9.5c0.2,1.8,0.9,3.4,2,4.4c-1.5-0.8-2.5-2.3-2.8-4.4L24.9,9.5L24.9,9.5z M29.3,15.2
		c0.3,0.1,0.5,0.1,0.8,0.1v3.6c-1.8,0.2-3.3-0.4-5.2-1.5l0.3,6.1c0,2,0,2.9-1,4.7c-2.6,4.4-7.4,4.4-10.2,1.9
		c3.7,2.1,10.2,0.5,10.2-6.8v-6.7c1.8,1.1,3.4,1.7,5.2,1.5L29.3,15.2L29.3,15.2z M17.5,17.8c0.4-0.1,0.8-0.1,1.2-0.2v3.8
		c-1.5,0.2-2.4,0.7-2.9,1.6c-1.3,2.4,0.1,4.3,1.8,5c-2.2-0.1-4.3-2.3-2.8-5.2c0.4-0.9,1.3-1.3,2.8-1.6V17.8L17.5,17.8z"/>
	<path class="st3" d="M24.1,9.3c0.4,3.2,2.1,5.1,5.2,5.3v3.6c-1.8,0.2-3.3-0.4-5.2-1.5v6.7c0,8.7-9.3,9.4-12,5
		c-1.8-2.9-1.1-9.8,5.3-10.8v3.6c-1.5,0.2-2.3,0.7-2.8,1.6c-2.7,5.3,6.8,8.4,6.2-0.1V9.3L24.1,9.3L24.1,9.3z"/>
</g>
</svg>
