<?xml version="1.0" encoding="UTF-8"?>
<!-- www.vectorico.com -->
<svg version="1.1" id="Tinder" xmlns="http://www.w3.org/2000/svg" xmlns:xlink="http://www.w3.org/1999/xlink" x="0px" y="0px" viewBox="0 0 64 64" style="enable-background:new 0 0 64 64;" xml:space="preserve">
<style type="text/css">
	.st0{fill:url(#SVGID_1_);}
	.st1{fill:#FFFFFF;}
</style>
<title>tinder icon</title>
<linearGradient id="SVGID_1_" gradientUnits="userSpaceOnUse" x1="10.3297" y1="53.6703" x2="54.1703" y2="9.8297">
	<stop offset="0" style="stop-color:#FF0674"/>
	<stop offset="1" style="stop-color:#FF813F"/>
</linearGradient>
<circle class="st0" cx="32" cy="32" r="31"/>
<path class="st1" d="M33,14.7c0,0.1,0,0.3,0,0.5c0.2,0.8,0.2,3.5,0.1,4.4c-0.1,0.6-0.1,0.9-0.2,1.1c0,0.1-0.1,0.2-0.1,0.3  c-0.1,0.7-0.5,1.8-0.9,2.6c-1.1,2.2-3,3.9-5.5,4.9l-0.6,0.3l-0.1-0.2c-0.6-0.8-1.2-2.7-1.4-4.3c-0.1-0.8-0.1-1-0.2-1.1  C24,23,24,23,23.7,23.2c-0.2,0.1-0.4,0.2-0.4,0.2c0,0-0.4,0.3-0.8,0.6c-2.8,2.1-5,5.5-5.6,8.9c-0.2,1-0.2,3.1,0,4.3  c0.1,0.7,0.6,2.5,0.7,2.8c0,0.1,0.1,0.2,0.2,0.4c0.2,0.5,0.9,1.9,1.2,2.4c0.6,1,1.2,1.7,2,2.5c0.8,0.8,1.9,1.6,2.8,2.1  c0.1,0.1,0.4,0.2,0.6,0.3c0.8,0.4,2.3,1,3.5,1.3c1,0.2,1.1,0.3,2.5,0.4c0.5,0.1,3.3,0,3.5,0c0.1,0,0.3-0.1,0.5-0.1  c0.2,0,0.6-0.1,0.8-0.2c0.3-0.1,0.6-0.1,0.7-0.1c1.1-0.2,3.2-1.1,4.4-1.8c1.4-0.9,2.9-2.2,3.8-3.4c0.1-0.1,0.2-0.3,0.3-0.4  c1.3-1.7,2.4-4.3,2.7-6.4c0-0.2,0-0.3,0.1-0.4c0.1-0.7,0.1-2,0.1-3.3c-0.1-0.9-0.1-1-0.3-2.7c-0.1-0.4-0.5-2-0.7-2.6  c-0.4-1.1-1-2.5-1.5-3.4c-0.4-0.7-0.5-0.9-0.7-1.2c-0.2-0.2-0.3-0.4-0.3-0.4c0,0-0.1-0.1-0.1-0.1c0-0.1-0.5-0.7-1.1-1.5  c-1.8-2.1-4.1-4.1-6.6-5.6c-1-0.6-2.4-1.3-2.5-1.3C33.2,14.5,33.1,14.6,33,14.7z"/>
</svg>