<svg width="129" height="122" viewBox="0 0 129 122" fill="none" xmlns="http://www.w3.org/2000/svg">
<path d="M64.5 0C51.7431 0 39.2727 3.57759 28.6657 10.2804C18.0588 16.9831 9.79165 26.51 4.9098 37.6563C0.0279455 48.8026 -1.24937 61.0677 1.23938 72.9005C3.72812 84.7333 9.87115 95.6025 18.8916 104.133C27.9121 112.664 39.4049 118.474 51.9167 120.828C64.4285 123.182 77.3973 121.974 89.1831 117.357C100.969 112.74 111.042 104.921 118.13 94.8898C125.217 84.8584 129 73.0646 129 61C128.967 44.8315 122.16 29.3343 110.071 17.9014C97.9826 6.46853 81.5962 0.03161 64.5 0ZM64.5 114.824C53.2439 114.824 42.2406 111.667 32.8815 105.753C23.5225 99.8384 16.2279 91.4323 11.9204 81.5974C7.6129 71.7624 6.48585 60.9403 8.68181 50.4995C10.8778 40.0588 16.2981 30.4684 24.2573 22.941C32.2166 15.4137 42.3573 10.2875 53.3971 8.21067C64.4369 6.13388 75.8799 7.19977 86.2792 11.2735C96.6785 15.3473 105.567 22.246 111.82 31.0972C118.074 39.9485 121.412 50.3547 121.412 61C121.395 75.27 115.394 88.951 104.724 99.0415C94.0548 109.132 79.5888 114.808 64.5 114.824ZM35.4118 49.0392C35.4118 47.8564 35.7827 46.7001 36.4775 45.7167C37.1723 44.7332 38.1599 43.9667 39.3154 43.514C40.4709 43.0614 41.7423 42.943 42.969 43.1737C44.1956 43.4045 45.3224 43.9741 46.2067 44.8104C47.0911 45.6468 47.6933 46.7124 47.9373 47.8725C48.1813 49.0326 48.0561 50.235 47.5775 51.3278C47.0989 52.4206 46.2884 53.3546 45.2485 54.0117C44.2086 54.6689 42.986 55.0196 41.7353 55.0196C40.0582 55.0196 38.4498 54.3895 37.2639 53.268C36.078 52.1464 35.4118 50.6253 35.4118 49.0392ZM80.9412 49.0392C80.9412 47.8564 81.3121 46.7001 82.0069 45.7167C82.7017 44.7332 83.6893 43.9667 84.8448 43.514C86.0003 43.0614 87.2717 42.943 88.4984 43.1737C89.725 43.4045 90.8518 43.9741 91.7361 44.8104C92.6205 45.6468 93.2227 46.7124 93.4667 47.8725C93.7107 49.0326 93.5855 50.235 93.1069 51.3278C92.6283 52.4206 91.8178 53.3546 90.7779 54.0117C89.738 54.6689 88.5154 55.0196 87.2647 55.0196C85.5876 55.0196 83.9792 54.3895 82.7933 53.268C81.6074 52.1464 80.9412 50.6253 80.9412 49.0392ZM94.0941 87.9117C94.3435 88.3201 94.5054 88.7709 94.5704 89.2384C94.6355 89.7059 94.6025 90.181 94.4733 90.6364C94.3441 91.0919 94.1212 91.5187 93.8175 91.8927C93.5137 92.2666 93.135 92.5802 92.703 92.8157C92.1189 93.1134 91.4691 93.2773 90.8059 93.2941C90.1395 93.2945 89.4847 93.1289 88.9075 92.8139C88.3302 92.499 87.8509 92.0458 87.5177 91.5C85.1889 87.674 81.8351 84.4961 77.7942 82.2864C73.7532 80.0767 69.1678 78.9132 64.5 78.9132C59.8322 78.9132 55.2468 80.0767 51.2058 82.2864C47.1649 84.4961 43.8111 87.674 41.4824 91.5C41.2397 91.9145 40.9112 92.2786 40.5165 92.5705C40.1218 92.8624 39.669 93.0761 39.1851 93.1989C38.7011 93.3217 38.196 93.3511 37.6998 93.2852C37.2037 93.2194 36.7266 93.0597 36.2971 92.8157C35.8651 92.5802 35.4863 92.2666 35.1826 91.8927C34.8788 91.5187 34.6559 91.0919 34.5267 90.6364C34.3975 90.181 34.3645 89.7059 34.4296 89.2384C34.4946 88.7709 34.6565 88.3201 34.9059 87.9117C37.9129 83.0079 42.2294 78.9373 47.4233 76.1076C52.6172 73.2779 58.506 71.7885 64.5 71.7885C70.494 71.7885 76.3829 73.2779 81.5767 76.1076C86.7706 78.9373 91.0872 83.0079 94.0941 87.9117Z" fill="#FB4142"/>
</svg>
