<svg width="21" height="25" viewBox="0 0 21 25" fill="none" xmlns="http://www.w3.org/2000/svg">
<path d="M10.8322 20.9583C11.0739 20.9382 11.2805 20.8427 11.4521 20.6719C11.6229 20.5003 11.7083 20.2937 11.7083 20.052C11.7083 19.7701 11.6176 19.5437 11.4364 19.373C11.2551 19.2014 11.0235 19.1257 10.7416 19.1458C9.91589 19.2062 9.03985 18.9798 8.11346 18.4667C7.18707 17.9528 6.60304 17.0211 6.36138 15.6718C6.3211 15.4503 6.21517 15.2691 6.04359 15.1281C5.87281 14.9871 5.67665 14.9166 5.45513 14.9166C5.17318 14.9166 4.94159 15.0222 4.76034 15.2332C4.57909 15.4451 4.51867 15.692 4.57909 15.9739C4.92145 17.8066 5.727 19.1156 6.99575 19.901C8.2645 20.6864 9.54332 21.0388 10.8322 20.9583V20.9583ZM10.4999 24.5833C7.74089 24.5833 5.44022 23.6368 3.59792 21.7437C1.75481 19.8507 0.833252 17.4944 0.833252 14.675C0.833252 12.6611 1.63397 10.4712 3.23542 8.10525C4.83606 5.73853 7.25756 3.17565 10.4999 0.416626C13.7423 3.17565 16.1642 5.73853 17.7656 8.10525C19.3663 10.4712 20.1666 12.6611 20.1666 14.675C20.1666 17.4944 19.245 19.8507 17.4019 21.7437C15.5596 23.6368 13.2589 24.5833 10.4999 24.5833Z" fill="#70F98E"/>
</svg>
